<svg xmlns="http://www.w3.org/2000/svg" width="1000" height="620" viewBox="0 0 1000 620">
<rect width="100%" height="100%" fill="white"/>
<text x="500" y="34" text-anchor="middle" font-family="sans-serif" font-size="24" font-weight="700">DHMP Gen-2 — Latest input rate (10 µs work)</text>
<text x="24" y="285" transform="rotate(-90 24 285)" text-anchor="middle" font-family="sans-serif" font-size="14">Million frames / second</text>
<line x1="100" y1="500.0" x2="970" y2="500.0" stroke="#ddd"/>
<text x="90" y="505.0" text-anchor="end" font-family="sans-serif" font-size="12">0</text>
<line x1="100" y1="414.0" x2="970" y2="414.0" stroke="#ddd"/>
<text x="90" y="419.0" text-anchor="end" font-family="sans-serif" font-size="12">109</text>
<line x1="100" y1="328.0" x2="970" y2="328.0" stroke="#ddd"/>
<text x="90" y="333.0" text-anchor="end" font-family="sans-serif" font-size="12">217</text>
<line x1="100" y1="242.0" x2="970" y2="242.0" stroke="#ddd"/>
<text x="90" y="247.0" text-anchor="end" font-family="sans-serif" font-size="12">326</text>
<line x1="100" y1="156.0" x2="970" y2="156.0" stroke="#ddd"/>
<text x="90" y="161.0" text-anchor="end" font-family="sans-serif" font-size="12">434</text>
<line x1="100" y1="70.0" x2="970" y2="70.0" stroke="#ddd"/>
<text x="90" y="75.0" text-anchor="end" font-family="sans-serif" font-size="12">543</text>
<rect x="130.4" y="223.3" width="49.2" height="276.7" fill="#2f6b9a"/>
<rect x="182.6" y="116.1" width="49.2" height="383.9" fill="#6a9f58"/>
<rect x="234.8" y="242.3" width="49.2" height="257.7" fill="#a76a3b"/>
<text x="208.8" y="528" text-anchor="middle" font-family="sans-serif" font-size="14">16 B</text>
<rect x="347.9" y="381.7" width="49.2" height="118.3" fill="#2f6b9a"/>
<rect x="400.1" y="275.5" width="49.2" height="224.5" fill="#6a9f58"/>
<rect x="452.3" y="322.7" width="49.2" height="177.3" fill="#a76a3b"/>
<text x="426.3" y="528" text-anchor="middle" font-family="sans-serif" font-size="14">32 B</text>
<rect x="565.5" y="471.4" width="49.2" height="28.6" fill="#2f6b9a"/>
<rect x="617.7" y="471.4" width="49.2" height="28.6" fill="#6a9f58"/>
<rect x="669.9" y="476.6" width="49.2" height="23.4" fill="#a76a3b"/>
<text x="643.8" y="528" text-anchor="middle" font-family="sans-serif" font-size="14">256 B</text>
<rect x="783.0" y="493.5" width="49.2" height="6.5" fill="#2f6b9a"/>
<rect x="835.2" y="493.0" width="49.2" height="7.0" fill="#6a9f58"/>
<rect x="887.4" y="494.9" width="49.2" height="5.1" fill="#a76a3b"/>
<text x="861.3" y="528" text-anchor="middle" font-family="sans-serif" font-size="14">1 KiB</text>
<rect x="100" y="560" width="14" height="14" fill="#2f6b9a"/>
<text x="120" y="572" font-family="sans-serif" font-size="13">Baseline</text>
<rect x="305" y="560" width="14" height="14" fill="#6a9f58"/>
<text x="325" y="572" font-family="sans-serif" font-size="13">Max input</text>
<rect x="510" y="560" width="14" height="14" fill="#a76a3b"/>
<text x="530" y="572" font-family="sans-serif" font-size="13">Max publish</text>
</svg>