<svg xmlns="http://www.w3.org/2000/svg" width="1600" height="920" viewBox="0 0 1600 920" role="img" aria-labelledby="title desc"><title id="title">DHMP vs Common Protocols</title><desc id="desc">Median round trips/sec — .NET localhost full protocol comparison (higher is better)</desc><rect width="100%" height="100%" fill="#ffffff"/><text x="800" y="58" text-anchor="middle" font-family="Arial,Helvetica,sans-serif" font-size="42" font-weight="700" fill="#0a2540">DHMP vs Common Protocols</text><text x="800" y="102" text-anchor="middle" font-family="Arial,Helvetica,sans-serif" font-size="23" fill="#526176">Median round trips/sec — .NET localhost full protocol comparison (higher is better)</text><line x1="110" x2="1560" y1="730" y2="730" stroke="#d9e1ea" stroke-width="1"/><text x="92" y="737" text-anchor="end" font-family="Arial,Helvetica,sans-serif" font-size="18" fill="#25364d">0</text><line x1="110" x2="1560" y1="647.1428571428571" y2="647.1428571428571" stroke="#d9e1ea" stroke-width="1"/><text x="92" y="654.1428571428571" text-anchor="end" font-family="Arial,Helvetica,sans-serif" font-size="18" fill="#25364d">10,000</text><line x1="110" x2="1560" y1="564.2857142857143" y2="564.2857142857143" stroke="#d9e1ea" stroke-width="1"/><text x="92" y="571.2857142857143" text-anchor="end" font-family="Arial,Helvetica,sans-serif" font-size="18" fill="#25364d">20,000</text><line x1="110" x2="1560" y1="481.42857142857144" y2="481.42857142857144" stroke="#d9e1ea" stroke-width="1"/><text x="92" y="488.42857142857144" text-anchor="end" font-family="Arial,Helvetica,sans-serif" font-size="18" fill="#25364d">30,000</text><line x1="110" x2="1560" y1="398.5714285714286" y2="398.5714285714286" stroke="#d9e1ea" stroke-width="1"/><text x="92" y="405.5714285714286" text-anchor="end" font-family="Arial,Helvetica,sans-serif" font-size="18" fill="#25364d">40,000</text><line x1="110" x2="1560" y1="315.7142857142857" y2="315.7142857142857" stroke="#d9e1ea" stroke-width="1"/><text x="92" y="322.7142857142857" text-anchor="end" font-family="Arial,Helvetica,sans-serif" font-size="18" fill="#25364d">50,000</text><line x1="110" x2="1560" y1="232.8571428571429" y2="232.8571428571429" stroke="#d9e1ea" stroke-width="1"/><text x="92" y="239.8571428571429" text-anchor="end" font-family="Arial,Helvetica,sans-serif" font-size="18" fill="#25364d">60,000</text><line x1="110" x2="1560" y1="150" y2="150" stroke="#d9e1ea" stroke-width="1"/><text x="92" y="157" text-anchor="end" font-family="Arial,Helvetica,sans-serif" font-size="18" fill="#25364d">70,000</text><line x1="110" x2="110" y1="150" y2="730" stroke="#1f2937" stroke-width="2"/><line x1="110" x2="1560" y1="730" y2="730" stroke="#1f2937" stroke-width="2"/><rect x="136.6" y="377.3" width="28.1" height="352.7" fill="#0d6efd" rx="2"/><text x="150.6" y="368.3" text-anchor="middle" transform="rotate(-90 150.6 368.3)" font-family="Arial,Helvetica,sans-serif" font-size="14" font-weight="700" fill="#0d6efd">42,565</text><rect x="168.7" y="414.8" width="28.1" height="315.2" fill="#565b63" rx="2"/><text x="182.7" y="405.8" text-anchor="middle" transform="rotate(-90 182.7 405.8)" font-family="Arial,Helvetica,sans-serif" font-size="14" font-weight="400" fill="#263238">38,046</text><rect x="200.7" y="529.8" width="28.1" height="200.2" fill="#777c84" rx="2"/><text x="214.8" y="520.8" text-anchor="middle" transform="rotate(-90 214.8 520.8)" font-family="Arial,Helvetica,sans-serif" font-size="14" font-weight="400" fill="#263238">24,168</text><rect x="232.8" y="559.9" width="28.1" height="170.1" fill="#969aa1" rx="2"/><text x="246.9" y="550.9" text-anchor="middle" transform="rotate(-90 246.9 550.9)" font-family="Arial,Helvetica,sans-serif" font-size="14" font-weight="400" fill="#263238">20,535</text><rect x="264.9" y="623.9" width="28.1" height="106.1" fill="#b4b7bd" rx="2"/><text x="279.0" y="614.9" text-anchor="middle" transform="rotate(-90 279.0 614.9)" font-family="Arial,Helvetica,sans-serif" font-size="14" font-weight="400" fill="#263238">12,806</text><rect x="297.0" y="635.0" width="28.1" height="95.0" fill="#d0d2d6" rx="2"/><text x="311.0" y="626.0" text-anchor="middle" transform="rotate(-90 311.0 626.0)" font-family="Arial,Helvetica,sans-serif" font-size="14" font-weight="400" fill="#263238">11,460</text><text x="230.83333333333331" y="768" text-anchor="middle" font-family="Arial,Helvetica,sans-serif" font-size="20" fill="#25364d">32 B</text><rect x="378.3" y="287.3" width="28.1" height="442.7" fill="#0d6efd" rx="2"/><text x="392.3" y="278.3" text-anchor="middle" transform="rotate(-90 392.3 278.3)" font-family="Arial,Helvetica,sans-serif" font-size="14" font-weight="700" fill="#0d6efd">53,433</text><rect x="410.3" y="311.6" width="28.1" height="418.4" fill="#565b63" rx="2"/><text x="424.4" y="302.6" text-anchor="middle" transform="rotate(-90 424.4 302.6)" font-family="Arial,Helvetica,sans-serif" font-size="14" font-weight="400" fill="#263238">50,496</text><rect x="442.4" y="352.0" width="28.1" height="378.0" fill="#777c84" rx="2"/><text x="456.5" y="343.0" text-anchor="middle" transform="rotate(-90 456.5 343.0)" font-family="Arial,Helvetica,sans-serif" font-size="14" font-weight="400" fill="#263238">45,625</text><rect x="474.5" y="536.2" width="28.1" height="193.8" fill="#969aa1" rx="2"/><text x="488.5" y="527.2" text-anchor="middle" transform="rotate(-90 488.5 527.2)" font-family="Arial,Helvetica,sans-serif" font-size="14" font-weight="400" fill="#263238">23,393</text><rect x="506.6" y="641.0" width="28.1" height="89.0" fill="#b4b7bd" rx="2"/><text x="520.6" y="632.0" text-anchor="middle" transform="rotate(-90 520.6 632.0)" font-family="Arial,Helvetica,sans-serif" font-size="14" font-weight="400" fill="#263238">10,742</text><rect x="538.7" y="635.9" width="28.1" height="94.1" fill="#d0d2d6" rx="2"/><text x="552.7" y="626.9" text-anchor="middle" transform="rotate(-90 552.7 626.9)" font-family="Arial,Helvetica,sans-serif" font-size="14" font-weight="400" fill="#263238">11,357</text><text x="472.5" y="768" text-anchor="middle" font-family="Arial,Helvetica,sans-serif" font-size="20" fill="#25364d">64 B</text><rect x="619.9" y="365.2" width="28.1" height="364.8" fill="#0d6efd" rx="2"/><text x="634.0" y="356.2" text-anchor="middle" transform="rotate(-90 634.0 356.2)" font-family="Arial,Helvetica,sans-serif" font-size="14" font-weight="700" fill="#0d6efd">44,022</text><rect x="652.0" y="364.6" width="28.1" height="365.4" fill="#565b63" rx="2"/><text x="666.0" y="355.6" text-anchor="middle" transform="rotate(-90 666.0 355.6)" font-family="Arial,Helvetica,sans-serif" font-size="14" font-weight="400" fill="#263238">44,101</text><rect x="684.1" y="463.5" width="28.1" height="266.5" fill="#777c84" rx="2"/><text x="698.1" y="454.5" text-anchor="middle" transform="rotate(-90 698.1 454.5)" font-family="Arial,Helvetica,sans-serif" font-size="14" font-weight="400" fill="#263238">32,159</text><rect x="716.2" y="572.8" width="28.1" height="157.2" fill="#969aa1" rx="2"/><text x="730.2" y="563.8" text-anchor="middle" transform="rotate(-90 730.2 563.8)" font-family="Arial,Helvetica,sans-serif" font-size="14" font-weight="400" fill="#263238">18,973</text><rect x="748.3" y="629.5" width="28.1" height="100.5" fill="#b4b7bd" rx="2"/><text x="762.3" y="620.5" text-anchor="middle" transform="rotate(-90 762.3 620.5)" font-family="Arial,Helvetica,sans-serif" font-size="14" font-weight="400" fill="#263238">12,134</text><rect x="780.3" y="645.2" width="28.1" height="84.8" fill="#d0d2d6" rx="2"/><text x="794.4" y="636.2" text-anchor="middle" transform="rotate(-90 794.4 636.2)" font-family="Arial,Helvetica,sans-serif" font-size="14" font-weight="400" fill="#263238">10,235</text><text x="714.1666666666666" y="768" text-anchor="middle" font-family="Arial,Helvetica,sans-serif" font-size="20" fill="#25364d">128 B</text><rect x="861.6" y="367.1" width="28.1" height="362.9" fill="#0d6efd" rx="2"/><text x="875.6" y="358.1" text-anchor="middle" transform="rotate(-90 875.6 358.1)" font-family="Arial,Helvetica,sans-serif" font-size="14" font-weight="700" fill="#0d6efd">43,794</text><rect x="893.7" y="373.6" width="28.1" height="356.4" fill="#565b63" rx="2"/><text x="907.7" y="364.6" text-anchor="middle" transform="rotate(-90 907.7 364.6)" font-family="Arial,Helvetica,sans-serif" font-size="14" font-weight="400" fill="#263238">43,014</text><rect x="925.7" y="400.3" width="28.1" height="329.7" fill="#777c84" rx="2"/><text x="939.8" y="391.3" text-anchor="middle" transform="rotate(-90 939.8 391.3)" font-family="Arial,Helvetica,sans-serif" font-size="14" font-weight="400" fill="#263238">39,797</text><rect x="957.8" y="540.2" width="28.1" height="189.8" fill="#969aa1" rx="2"/><text x="971.9" y="531.2" text-anchor="middle" transform="rotate(-90 971.9 531.2)" font-family="Arial,Helvetica,sans-serif" font-size="14" font-weight="400" fill="#263238">22,910</text><rect x="989.9" y="600.9" width="28.1" height="129.1" fill="#b4b7bd" rx="2"/><text x="1004.0" y="591.9" text-anchor="middle" transform="rotate(-90 1004.0 591.9)" font-family="Arial,Helvetica,sans-serif" font-size="14" font-weight="400" fill="#263238">15,578</text><rect x="1022.0" y="642.0" width="28.1" height="88.0" fill="#d0d2d6" rx="2"/><text x="1036.0" y="633.0" text-anchor="middle" transform="rotate(-90 1036.0 633.0)" font-family="Arial,Helvetica,sans-serif" font-size="14" font-weight="400" fill="#263238">10,625</text><text x="955.8333333333333" y="768" text-anchor="middle" font-family="Arial,Helvetica,sans-serif" font-size="20" fill="#25364d">256 B</text><rect x="1103.3" y="263.2" width="28.1" height="466.8" fill="#0d6efd" rx="2"/><text x="1117.3" y="254.2" text-anchor="middle" transform="rotate(-90 1117.3 254.2)" font-family="Arial,Helvetica,sans-serif" font-size="14" font-weight="700" fill="#0d6efd">56,336</text><rect x="1135.3" y="301.9" width="28.1" height="428.1" fill="#565b63" rx="2"/><text x="1149.4" y="292.9" text-anchor="middle" transform="rotate(-90 1149.4 292.9)" font-family="Arial,Helvetica,sans-serif" font-size="14" font-weight="400" fill="#263238">51,670</text><rect x="1167.4" y="361.7" width="28.1" height="368.3" fill="#777c84" rx="2"/><text x="1181.5" y="352.7" text-anchor="middle" transform="rotate(-90 1181.5 352.7)" font-family="Arial,Helvetica,sans-serif" font-size="14" font-weight="400" fill="#263238">44,455</text><rect x="1199.5" y="539.1" width="28.1" height="190.9" fill="#969aa1" rx="2"/><text x="1213.5" y="530.1" text-anchor="middle" transform="rotate(-90 1213.5 530.1)" font-family="Arial,Helvetica,sans-serif" font-size="14" font-weight="400" fill="#263238">23,035</text><rect x="1231.6" y="603.8" width="28.1" height="126.2" fill="#b4b7bd" rx="2"/><text x="1245.6" y="594.8" text-anchor="middle" transform="rotate(-90 1245.6 594.8)" font-family="Arial,Helvetica,sans-serif" font-size="14" font-weight="400" fill="#263238">15,236</text><rect x="1263.7" y="638.8" width="28.1" height="91.2" fill="#d0d2d6" rx="2"/><text x="1277.7" y="629.8" text-anchor="middle" transform="rotate(-90 1277.7 629.8)" font-family="Arial,Helvetica,sans-serif" font-size="14" font-weight="400" fill="#263238">11,006</text><text x="1197.5" y="768" text-anchor="middle" font-family="Arial,Helvetica,sans-serif" font-size="20" fill="#25364d">512 B</text><rect x="1344.9" y="264.0" width="28.1" height="466.0" fill="#0d6efd" rx="2"/><text x="1359.0" y="255.0" text-anchor="middle" transform="rotate(-90 1359.0 255.0)" font-family="Arial,Helvetica,sans-serif" font-size="14" font-weight="700" fill="#0d6efd">56,239</text><rect x="1377.0" y="300.3" width="28.1" height="429.7" fill="#565b63" rx="2"/><text x="1391.0" y="291.3" text-anchor="middle" transform="rotate(-90 1391.0 291.3)" font-family="Arial,Helvetica,sans-serif" font-size="14" font-weight="400" fill="#263238">51,858</text><rect x="1409.1" y="361.6" width="28.1" height="368.4" fill="#777c84" rx="2"/><text x="1423.1" y="352.6" text-anchor="middle" transform="rotate(-90 1423.1 352.6)" font-family="Arial,Helvetica,sans-serif" font-size="14" font-weight="400" fill="#263238">44,465</text><rect x="1441.2" y="541.1" width="28.1" height="188.9" fill="#969aa1" rx="2"/><text x="1455.2" y="532.1" text-anchor="middle" transform="rotate(-90 1455.2 532.1)" font-family="Arial,Helvetica,sans-serif" font-size="14" font-weight="400" fill="#263238">22,795</text><rect x="1473.2" y="602.7" width="28.1" height="127.3" fill="#b4b7bd" rx="2"/><text x="1487.3" y="593.7" text-anchor="middle" transform="rotate(-90 1487.3 593.7)" font-family="Arial,Helvetica,sans-serif" font-size="14" font-weight="400" fill="#263238">15,369</text><rect x="1505.3" y="614.9" width="28.1" height="115.1" fill="#d0d2d6" rx="2"/><text x="1519.4" y="605.9" text-anchor="middle" transform="rotate(-90 1519.4 605.9)" font-family="Arial,Helvetica,sans-serif" font-size="14" font-weight="400" fill="#263238">13,887</text><text x="1439.1666666666665" y="768" text-anchor="middle" font-family="Arial,Helvetica,sans-serif" font-size="20" fill="#25364d">1024 B</text><text x="35" y="440" text-anchor="middle" transform="rotate(-90 35 440)" font-family="Arial,Helvetica,sans-serif" font-size="21" fill="#25364d">Round trips / sec</text><text x="835" y="815" text-anchor="middle" font-family="Arial,Helvetica,sans-serif" font-size="21" fill="#25364d">Payload size</text><rect x="185" y="833" width="24" height="24" rx="4" fill="#0d6efd"/><text x="219" y="852" font-family="Arial,Helvetica,sans-serif" font-size="16" font-weight="700" fill="#25364d">DHMP</text><rect x="390" y="833" width="24" height="24" rx="4" fill="#565b63"/><text x="424" y="852" font-family="Arial,Helvetica,sans-serif" font-size="16" font-weight="400" fill="#25364d">TCP + 4-byte length</text><rect x="595" y="833" width="24" height="24" rx="4" fill="#777c84"/><text x="629" y="852" font-family="Arial,Helvetica,sans-serif" font-size="16" font-weight="400" fill="#25364d">MessagePack/TCP</text><rect x="800" y="833" width="24" height="24" rx="4" fill="#969aa1"/><text x="834" y="852" font-family="Arial,Helvetica,sans-serif" font-size="16" font-weight="400" fill="#25364d">HTTP/1.1 binary</text><rect x="1005" y="833" width="24" height="24" rx="4" fill="#b4b7bd"/><text x="1039" y="852" font-family="Arial,Helvetica,sans-serif" font-size="16" font-weight="400" fill="#25364d">HTTP/2 binary</text><rect x="1210" y="833" width="24" height="24" rx="4" fill="#d0d2d6"/><text x="1244" y="852" font-family="Arial,Helvetica,sans-serif" font-size="16" font-weight="400" fill="#25364d">gRPC/Protobuf</text><text x="1560" y="902" text-anchor="end" font-family="Arial,Helvetica,sans-serif" font-size="14" fill="#6b778c">Source: docs/BENCHMARKS.md — Full protocol comparison</text></svg>